<mxfile host="app.diagrams.net" modified="2021-10-18T20:29:59.655Z" agent="5.0 (Macintosh; Intel Mac OS X 10_15_7) AppleWebKit/537.36 (KHTML, like Gecko) Chrome/94.0.4606.71 Safari/537.36" etag="n2vU7_LoTZX8lqLObAOw" version="15.5.5" type="github">
  <diagram id="mntyHjpULvw6fBS0C4M6" name="Flowchart">
    <mxGraphModel dx="786" dy="1715" grid="1" gridSize="10" guides="1" tooltips="1" connect="1" arrows="1" fold="1" page="1" pageScale="1" pageWidth="827" pageHeight="1169" math="0" shadow="0">
      <root>
        <mxCell id="ED_iCr8tXnGvDsNAPAZY-0" />
        <mxCell id="ED_iCr8tXnGvDsNAPAZY-1" parent="ED_iCr8tXnGvDsNAPAZY-0" />
        <mxCell id="t54jtPoxjbEeWOMnIMBZ-25" style="edgeStyle=orthogonalEdgeStyle;rounded=0;orthogonalLoop=1;jettySize=auto;html=1;entryX=0.575;entryY=0;entryDx=0;entryDy=0;entryPerimeter=0;fontSize=15;" parent="ED_iCr8tXnGvDsNAPAZY-1" source="t54jtPoxjbEeWOMnIMBZ-0" target="t54jtPoxjbEeWOMnIMBZ-4" edge="1">
          <mxGeometry relative="1" as="geometry">
            <Array as="points">
              <mxPoint x="659" y="40" />
            </Array>
          </mxGeometry>
        </mxCell>
        <mxCell id="T1jSjr9GgxMsZKr1NXF3-0" style="edgeStyle=orthogonalEdgeStyle;rounded=0;orthogonalLoop=1;jettySize=auto;html=1;entryX=0.433;entryY=-0.017;entryDx=0;entryDy=0;entryPerimeter=0;fontSize=15;exitX=0;exitY=0.5;exitDx=0;exitDy=0;" edge="1" parent="ED_iCr8tXnGvDsNAPAZY-1" source="t54jtPoxjbEeWOMnIMBZ-0" target="t54jtPoxjbEeWOMnIMBZ-1">
          <mxGeometry relative="1" as="geometry">
            <Array as="points">
              <mxPoint x="442" y="40" />
            </Array>
          </mxGeometry>
        </mxCell>
        <mxCell id="t54jtPoxjbEeWOMnIMBZ-0" value="&lt;font style=&quot;font-size: 15px&quot;&gt;&lt;span&gt;Generate&lt;/span&gt;&lt;span&gt;&amp;nbsp;order&lt;/span&gt;&lt;/font&gt;" style="rounded=1;whiteSpace=wrap;html=1;" parent="ED_iCr8tXnGvDsNAPAZY-1" vertex="1">
          <mxGeometry x="490" y="20" width="116" height="60" as="geometry" />
        </mxCell>
        <mxCell id="T1jSjr9GgxMsZKr1NXF3-4" style="edgeStyle=orthogonalEdgeStyle;rounded=0;orthogonalLoop=1;jettySize=auto;html=1;entryX=0.5;entryY=0;entryDx=0;entryDy=0;fontSize=15;" edge="1" parent="ED_iCr8tXnGvDsNAPAZY-1" source="t54jtPoxjbEeWOMnIMBZ-1" target="t54jtPoxjbEeWOMnIMBZ-3">
          <mxGeometry relative="1" as="geometry">
            <Array as="points">
              <mxPoint x="550" y="110" />
              <mxPoint x="550" y="190" />
              <mxPoint x="680" y="190" />
            </Array>
          </mxGeometry>
        </mxCell>
        <mxCell id="t54jtPoxjbEeWOMnIMBZ-1" value="Add to bid book list" style="rounded=1;whiteSpace=wrap;html=1;fontSize=15;" parent="ED_iCr8tXnGvDsNAPAZY-1" vertex="1">
          <mxGeometry x="390" y="100" width="120" height="60" as="geometry" />
        </mxCell>
        <mxCell id="t54jtPoxjbEeWOMnIMBZ-6" value="" style="edgeStyle=orthogonalEdgeStyle;rounded=0;orthogonalLoop=1;jettySize=auto;html=1;fontSize=15;" parent="ED_iCr8tXnGvDsNAPAZY-1" source="t54jtPoxjbEeWOMnIMBZ-3" target="t54jtPoxjbEeWOMnIMBZ-5" edge="1">
          <mxGeometry relative="1" as="geometry" />
        </mxCell>
        <mxCell id="t54jtPoxjbEeWOMnIMBZ-3" value="Update depth chart" style="rounded=1;whiteSpace=wrap;html=1;fontSize=15;" parent="ED_iCr8tXnGvDsNAPAZY-1" vertex="1">
          <mxGeometry x="620" y="280" width="120" height="60" as="geometry" />
        </mxCell>
        <mxCell id="T1jSjr9GgxMsZKr1NXF3-6" style="edgeStyle=orthogonalEdgeStyle;rounded=0;orthogonalLoop=1;jettySize=auto;html=1;fontSize=15;" edge="1" parent="ED_iCr8tXnGvDsNAPAZY-1" source="t54jtPoxjbEeWOMnIMBZ-4" target="t54jtPoxjbEeWOMnIMBZ-11">
          <mxGeometry relative="1" as="geometry">
            <Array as="points">
              <mxPoint x="550" y="110" />
              <mxPoint x="550" y="190" />
              <mxPoint x="480" y="190" />
            </Array>
          </mxGeometry>
        </mxCell>
        <mxCell id="t54jtPoxjbEeWOMnIMBZ-4" value="Add to ask book list" style="rounded=1;whiteSpace=wrap;html=1;fontSize=15;" parent="ED_iCr8tXnGvDsNAPAZY-1" vertex="1">
          <mxGeometry x="590" y="100" width="120" height="60" as="geometry" />
        </mxCell>
        <mxCell id="t54jtPoxjbEeWOMnIMBZ-5" value="Update DC GUI" style="rounded=1;whiteSpace=wrap;html=1;fontSize=15;" parent="ED_iCr8tXnGvDsNAPAZY-1" vertex="1">
          <mxGeometry x="620" y="410" width="120" height="60" as="geometry" />
        </mxCell>
        <mxCell id="T1jSjr9GgxMsZKr1NXF3-13" style="edgeStyle=orthogonalEdgeStyle;rounded=0;orthogonalLoop=1;jettySize=auto;html=1;entryX=0.5;entryY=0;entryDx=0;entryDy=0;fontSize=15;" edge="1" parent="ED_iCr8tXnGvDsNAPAZY-1" source="t54jtPoxjbEeWOMnIMBZ-7" target="T1jSjr9GgxMsZKr1NXF3-12">
          <mxGeometry relative="1" as="geometry">
            <Array as="points">
              <mxPoint x="110" y="235" />
              <mxPoint x="85" y="235" />
            </Array>
          </mxGeometry>
        </mxCell>
        <mxCell id="T1jSjr9GgxMsZKr1NXF3-15" style="edgeStyle=orthogonalEdgeStyle;rounded=0;orthogonalLoop=1;jettySize=auto;html=1;entryX=0.5;entryY=0;entryDx=0;entryDy=0;fontSize=15;" edge="1" parent="ED_iCr8tXnGvDsNAPAZY-1" source="t54jtPoxjbEeWOMnIMBZ-7" target="t54jtPoxjbEeWOMnIMBZ-9">
          <mxGeometry relative="1" as="geometry">
            <Array as="points">
              <mxPoint x="180" y="243" />
              <mxPoint x="215" y="243" />
            </Array>
          </mxGeometry>
        </mxCell>
        <mxCell id="t54jtPoxjbEeWOMnIMBZ-7" value="if: order is matched" style="rhombus;whiteSpace=wrap;html=1;fontSize=15;" parent="ED_iCr8tXnGvDsNAPAZY-1" vertex="1">
          <mxGeometry x="55" y="120" width="180" height="110" as="geometry" />
        </mxCell>
        <mxCell id="t54jtPoxjbEeWOMnIMBZ-23" value="" style="edgeStyle=orthogonalEdgeStyle;rounded=0;orthogonalLoop=1;jettySize=auto;html=1;fontSize=15;" parent="ED_iCr8tXnGvDsNAPAZY-1" source="t54jtPoxjbEeWOMnIMBZ-8" target="t54jtPoxjbEeWOMnIMBZ-7" edge="1">
          <mxGeometry relative="1" as="geometry" />
        </mxCell>
        <mxCell id="t54jtPoxjbEeWOMnIMBZ-8" value="While order book is not empty" style="rounded=1;whiteSpace=wrap;html=1;fontSize=15;" parent="ED_iCr8tXnGvDsNAPAZY-1" vertex="1">
          <mxGeometry x="90" y="10" width="110" height="60" as="geometry" />
        </mxCell>
        <mxCell id="t54jtPoxjbEeWOMnIMBZ-16" value="" style="edgeStyle=orthogonalEdgeStyle;rounded=0;orthogonalLoop=1;jettySize=auto;html=1;fontSize=15;" parent="ED_iCr8tXnGvDsNAPAZY-1" source="t54jtPoxjbEeWOMnIMBZ-9" edge="1">
          <mxGeometry relative="1" as="geometry">
            <mxPoint x="160" y="419" as="targetPoint" />
            <Array as="points">
              <mxPoint x="215" y="380" />
              <mxPoint x="160" y="380" />
            </Array>
          </mxGeometry>
        </mxCell>
        <mxCell id="T1jSjr9GgxMsZKr1NXF3-8" style="edgeStyle=orthogonalEdgeStyle;rounded=0;orthogonalLoop=1;jettySize=auto;html=1;fontSize=15;exitX=1;exitY=0.5;exitDx=0;exitDy=0;entryX=0.5;entryY=0;entryDx=0;entryDy=0;" edge="1" parent="ED_iCr8tXnGvDsNAPAZY-1" source="t54jtPoxjbEeWOMnIMBZ-7" target="T1jSjr9GgxMsZKr1NXF3-7">
          <mxGeometry relative="1" as="geometry">
            <mxPoint x="360" y="280" as="targetPoint" />
            <Array as="points">
              <mxPoint x="360" y="175" />
            </Array>
          </mxGeometry>
        </mxCell>
        <mxCell id="t54jtPoxjbEeWOMnIMBZ-9" value="Remove full from order book" style="rounded=1;whiteSpace=wrap;html=1;fontSize=15;" parent="ED_iCr8tXnGvDsNAPAZY-1" vertex="1">
          <mxGeometry x="160" y="285" width="110" height="50" as="geometry" />
        </mxCell>
        <mxCell id="t54jtPoxjbEeWOMnIMBZ-20" value="" style="edgeStyle=orthogonalEdgeStyle;rounded=0;orthogonalLoop=1;jettySize=auto;html=1;fontSize=15;" parent="ED_iCr8tXnGvDsNAPAZY-1" source="t54jtPoxjbEeWOMnIMBZ-10" target="t54jtPoxjbEeWOMnIMBZ-19" edge="1">
          <mxGeometry relative="1" as="geometry" />
        </mxCell>
        <mxCell id="t54jtPoxjbEeWOMnIMBZ-10" value="Add to fill list" style="rounded=1;whiteSpace=wrap;html=1;fontSize=15;" parent="ED_iCr8tXnGvDsNAPAZY-1" vertex="1">
          <mxGeometry x="310" y="350" width="100" height="40" as="geometry" />
        </mxCell>
        <mxCell id="t54jtPoxjbEeWOMnIMBZ-11" value="Update OB GUI" style="rounded=1;whiteSpace=wrap;html=1;fontSize=15;" parent="ED_iCr8tXnGvDsNAPAZY-1" vertex="1">
          <mxGeometry x="430" y="275" width="120" height="60" as="geometry" />
        </mxCell>
        <mxCell id="t54jtPoxjbEeWOMnIMBZ-12" value="Update OB GUI" style="rounded=1;whiteSpace=wrap;html=1;fontSize=15;" parent="ED_iCr8tXnGvDsNAPAZY-1" vertex="1">
          <mxGeometry x="90" y="420" width="100" height="50" as="geometry" />
        </mxCell>
        <mxCell id="t54jtPoxjbEeWOMnIMBZ-27" value="" style="edgeStyle=orthogonalEdgeStyle;rounded=0;orthogonalLoop=1;jettySize=auto;html=1;fontSize=15;" parent="ED_iCr8tXnGvDsNAPAZY-1" source="t54jtPoxjbEeWOMnIMBZ-19" target="t54jtPoxjbEeWOMnIMBZ-26" edge="1">
          <mxGeometry relative="1" as="geometry" />
        </mxCell>
        <mxCell id="t54jtPoxjbEeWOMnIMBZ-19" value="Add to fill book" style="rounded=1;whiteSpace=wrap;html=1;fontSize=15;" parent="ED_iCr8tXnGvDsNAPAZY-1" vertex="1">
          <mxGeometry x="310" y="420" width="100" height="50" as="geometry" />
        </mxCell>
        <mxCell id="t54jtPoxjbEeWOMnIMBZ-26" value="Update FB GUI" style="rounded=1;whiteSpace=wrap;html=1;fontSize=15;" parent="ED_iCr8tXnGvDsNAPAZY-1" vertex="1">
          <mxGeometry x="310" y="490" width="100" height="50" as="geometry" />
        </mxCell>
        <mxCell id="T1jSjr9GgxMsZKr1NXF3-11" style="edgeStyle=orthogonalEdgeStyle;rounded=0;orthogonalLoop=1;jettySize=auto;html=1;entryX=0.5;entryY=0;entryDx=0;entryDy=0;fontSize=15;" edge="1" parent="ED_iCr8tXnGvDsNAPAZY-1" source="T1jSjr9GgxMsZKr1NXF3-7" target="t54jtPoxjbEeWOMnIMBZ-10">
          <mxGeometry relative="1" as="geometry" />
        </mxCell>
        <mxCell id="T1jSjr9GgxMsZKr1NXF3-7" value="Create tx dict" style="rounded=1;whiteSpace=wrap;html=1;fontSize=15;" vertex="1" parent="ED_iCr8tXnGvDsNAPAZY-1">
          <mxGeometry x="310" y="290" width="100" height="40" as="geometry" />
        </mxCell>
        <mxCell id="T1jSjr9GgxMsZKr1NXF3-14" style="edgeStyle=orthogonalEdgeStyle;rounded=0;orthogonalLoop=1;jettySize=auto;html=1;entryX=0.25;entryY=0;entryDx=0;entryDy=0;fontSize=15;" edge="1" parent="ED_iCr8tXnGvDsNAPAZY-1" source="T1jSjr9GgxMsZKr1NXF3-12" target="t54jtPoxjbEeWOMnIMBZ-12">
          <mxGeometry relative="1" as="geometry" />
        </mxCell>
        <mxCell id="T1jSjr9GgxMsZKr1NXF3-12" value="Reduce partial quantity on order book" style="rounded=1;whiteSpace=wrap;html=1;fontSize=15;" vertex="1" parent="ED_iCr8tXnGvDsNAPAZY-1">
          <mxGeometry x="30" y="285" width="110" height="50" as="geometry" />
        </mxCell>
        <mxCell id="01D6Qm0MdlQT4JPMypKT-2" style="edgeStyle=orthogonalEdgeStyle;rounded=0;orthogonalLoop=1;jettySize=auto;html=1;entryX=0.5;entryY=0;entryDx=0;entryDy=0;fontSize=15;" edge="1" parent="ED_iCr8tXnGvDsNAPAZY-1" source="01D6Qm0MdlQT4JPMypKT-1" target="t54jtPoxjbEeWOMnIMBZ-8">
          <mxGeometry relative="1" as="geometry" />
        </mxCell>
        <mxCell id="01D6Qm0MdlQT4JPMypKT-4" style="edgeStyle=orthogonalEdgeStyle;rounded=0;orthogonalLoop=1;jettySize=auto;html=1;entryX=0;entryY=0.25;entryDx=0;entryDy=0;fontSize=15;" edge="1" parent="ED_iCr8tXnGvDsNAPAZY-1" source="01D6Qm0MdlQT4JPMypKT-1" target="01D6Qm0MdlQT4JPMypKT-3">
          <mxGeometry relative="1" as="geometry" />
        </mxCell>
        <mxCell id="01D6Qm0MdlQT4JPMypKT-1" value="Main" style="rounded=1;whiteSpace=wrap;html=1;fontSize=15;" vertex="1" parent="ED_iCr8tXnGvDsNAPAZY-1">
          <mxGeometry x="300" y="-90" width="70" height="30" as="geometry" />
        </mxCell>
        <mxCell id="01D6Qm0MdlQT4JPMypKT-5" style="edgeStyle=orthogonalEdgeStyle;rounded=0;orthogonalLoop=1;jettySize=auto;html=1;entryX=0.5;entryY=0;entryDx=0;entryDy=0;fontSize=15;" edge="1" parent="ED_iCr8tXnGvDsNAPAZY-1" source="01D6Qm0MdlQT4JPMypKT-3" target="t54jtPoxjbEeWOMnIMBZ-0">
          <mxGeometry relative="1" as="geometry" />
        </mxCell>
        <mxCell id="01D6Qm0MdlQT4JPMypKT-3" value="While make orders = true" style="rounded=1;whiteSpace=wrap;html=1;fontSize=15;" vertex="1" parent="ED_iCr8tXnGvDsNAPAZY-1">
          <mxGeometry x="499.5" y="-50" width="97" height="40" as="geometry" />
        </mxCell>
        <mxCell id="01D6Qm0MdlQT4JPMypKT-6" value="if: bid" style="text;html=1;strokeColor=none;fillColor=none;align=center;verticalAlign=middle;whiteSpace=wrap;rounded=0;fontSize=15;" vertex="1" parent="ED_iCr8tXnGvDsNAPAZY-1">
          <mxGeometry x="384" y="50" width="60" height="30" as="geometry" />
        </mxCell>
        <mxCell id="01D6Qm0MdlQT4JPMypKT-7" value="if: ask" style="text;html=1;strokeColor=none;fillColor=none;align=center;verticalAlign=middle;whiteSpace=wrap;rounded=0;fontSize=15;" vertex="1" parent="ED_iCr8tXnGvDsNAPAZY-1">
          <mxGeometry x="660" y="50" width="60" height="30" as="geometry" />
        </mxCell>
      </root>
    </mxGraphModel>
  </diagram>
</mxfile>
